@startuml ERD basic
'!theme bluegray
entity user{
	* UserID: int <<PK>>
	* UserName: string
	* Sex: string
	' todo: more datas to be add
	test
}
entity permission {
	* PermissionID: int <<PK>>
	* UserID: int <<FK>>
	* Level: int
}

entity project{
	* ProjectID: int <<PK>>
	* ProjectName: string
	* ProjectOrganizationID: int <<FK>>
	* ProjectDescription: text
}

entity organization{
	* OrganizationID: int <<PK>>
	* OrganizationName: text
	* OrganizationDescription: text
}
entity contract{
	* ContractID: int <<PK>>
	* ContractName: int
	* ContractStartDate: date 
	* ContraceStatus: text 
	* ContractProjectID: int <<FK>>
}
entity issues{
	* IssueID: int <<PK>>
	* IssueMessage: text
	* IssueReference: text
	* IssuePersionID: int <<FK>>
}
entity funds{
	* FundID: int <<PK>>
	* Funds: money 
	* FundProjectID: int <<FK>>
	* FundStatus: text
}
entity result{
	* ResultID: int <<PK>>
	* ResultName: text
	* ResultDescription: text
	* ResultAssetsNum: int
	
	
}

entity assets {
	* AssetID: int <<PK>>
	* AssetDescription: text
	* AssetName: text
	* AssetFileLocation: text
}

'note
'project::ProjectOrganizationID ...* organization::OrganizationID
'contract::ContractProjectID ...* project::ProjectID

user }|.down.|| organization : in
project }|.left.|| organization: has
contract  }|.left.|| project: has
issues  }|.down.|{  user: sending to
funds  }|.up.||  project: of
result  }|.up..|{ organization: relates to
result ||.right.|{ assets: has
organization ||..|{ permission
project ||..|{ permission
contract ||..|{ permission
funds ||..|{ permission
result ||..|{ permission
@enduml